<?xml version="1.0" standalone="no"?>
<!DOCTYPE svg PUBLIC "-//W3C//DTD SVG 20010904//EN"
 "http://www.w3.org/TR/2001/REC-SVG-20010904/DTD/svg10.dtd">
<svg version="1.0" xmlns="http://www.w3.org/2000/svg"
 width="500.000000pt" height="500.000000pt" viewBox="0 0 500.000000 500.000000"
 preserveAspectRatio="xMidYMid meet">

<g transform="translate(0.000000,500.000000) scale(0.100000,-0.100000)"
fill="#000000" stroke="none">
<path d="M2664 4131 c-212 -72 -406 -309 -490 -596 -51 -175 -44 -400 20 -601
l23 -73 -41 -6 c-245 -37 -495 -114 -688 -211 -39 -19 -74 -32 -78 -27 -4 4
-19 39 -33 76 -60 158 -203 325 -338 396 -51 27 -68 42 -80 71 -33 75 -146 93
-201 30 -95 -106 75 -267 180 -170 l22 21 43 -25 c134 -79 232 -196 301 -361
l37 -90 -27 -22 c-62 -49 -64 -49 -129 12 -73 68 -157 116 -251 145 -42 12
-81 31 -95 46 -32 34 -106 34 -137 1 -25 -26 -30 -91 -9 -118 33 -43 108 -52
151 -18 25 20 32 21 69 10 58 -17 104 -39 155 -73 54 -37 112 -90 112 -102 0
-5 -23 -31 -50 -58 -227 -223 -292 -527 -170 -794 198 -437 872 -744 1635
-744 641 0 1231 222 1506 567 237 298 220 654 -46 942 l-55 58 95 73 c340 258
467 591 318 832 -108 174 -327 270 -623 270 -202 0 -448 -51 -590 -122 l-35
-18 0 157 c-1 170 -13 236 -63 341 -36 74 -126 163 -188 184 -62 21 -184 20
-250 -3z m213 -76 c115 -48 175 -151 203 -351 11 -75 3 -226 -16 -286 -3 -9
-35 -38 -71 -64 -131 -94 -264 -235 -367 -390 l-47 -71 -76 -7 c-42 -3 -102
-6 -135 -6 l-59 0 -18 43 c-81 188 -85 448 -12 661 56 159 188 334 318 420 92
61 206 82 280 51z m1168 -580 c113 -33 176 -67 240 -130 80 -78 100 -129 100
-250 0 -96 -2 -103 -41 -185 -117 -244 -395 -466 -707 -566 -229 -72 -454 -72
-691 3 -107 33 -288 126 -337 173 -33 31 -39 43 -39 78 0 77 61 218 153 350
218 315 529 504 909 552 128 16 311 5 413 -25z m-1975 -785 c71 -111 142 -311
174 -490 61 -336 21 -711 -106 -1005 -41 -95 -100 -195 -116 -195 -24 0 -246
67 -327 100 -230 91 -460 248 -571 388 -41 53 -110 171 -102 175 1 1 24 12 49
25 29 15 54 36 65 57 17 33 17 35 -1 54 -25 29 -46 26 -80 -9 -54 -57 -75 -36
-75 75 1 162 85 341 222 471 75 72 140 124 153 124 6 0 15 -19 21 -42 8 -39
12 -43 41 -46 46 -5 58 25 40 96 l-14 53 106 53 c58 29 145 68 193 85 80 29
257 79 284 81 7 0 26 -23 44 -50z m1040 -476 c93 -16 321 -15 376 1 19 6 22 0
34 -67 19 -102 17 -359 -4 -474 -41 -230 -120 -443 -232 -628 -17 -29 -227
-76 -406 -92 -88 -8 -89 -6 -58 55 53 104 126 327 154 471 39 201 48 461 21
645 -18 125 -18 117 3 111 9 -3 60 -13 112 -22z"/>
<path d="M1281 2081 c17 -23 19 -32 10 -50 -23 -41 -90 -16 -78 29 8 32 -3 23
-19 -16 -20 -48 -4 -98 40 -125 93 -57 190 35 144 136 -14 30 -55 55 -93 55
l-26 0 22 -29z"/>
<path d="M1260 1810 c0 -4 6 -7 13 -8 6 -1 26 -3 42 -6 17 -3 21 -3 11 0 -15
5 -16 8 -5 15 9 6 1 8 -23 7 -21 -1 -38 -4 -38 -8z"/>
<path d="M1220 1800 c0 -5 5 -10 11 -10 5 0 7 5 4 10 -3 6 -8 10 -11 10 -2 0
-4 -4 -4 -10z"/>
<path d="M1350 1800 c0 -5 7 -10 16 -10 8 0 12 5 9 10 -3 6 -10 10 -16 10 -5
0 -9 -4 -9 -10z"/>
<path d="M1209 1767 c4 -12 14 -23 22 -25 11 -3 11 -1 -1 7 -10 7 -11 11 -2
11 19 0 14 17 -7 23 -16 4 -18 1 -12 -16z"/>
<path d="M1330 1770 c-12 -8 -9 -10 10 -8 18 2 24 -1 22 -12 -3 -11 -1 -12 8
-3 25 23 -9 43 -40 23z"/>
<path d="M1250 1756 c0 -2 7 -9 15 -16 13 -11 14 -10 9 4 -5 14 -24 23 -24 12z"/>
<path d="M1325 1741 c-3 -6 -13 -7 -23 -4 -13 4 -14 3 -6 -6 7 -8 19 -9 34 -3
14 5 19 11 12 16 -6 3 -13 2 -17 -3z"/>
</g>
</svg>
